<svg fill="none" class="sol-illustration" viewBox="0 0 32 32" xmlns="http://www.w3.org/2000/svg"><g clip-path="url(#clip0_2813_8103)"><g clip-path="url(#clip1_2813_8103)"><path fill="#FFA310" d="M21.49 7.16c3.422 0 6.495 1.5 8.58 3.899.708.804 2.03.254 1.924-.817-.067-.697-.2-1.407-.401-2.117-1.056-3.779-4.076-6.726-7.857-7.718a11.397 11.397 0 00-14.446 11c0 .47.027.938.08 1.393.134 1.059 1.55 1.327 2.058.39a11.402 11.402 0 0110.063-6.03z"/><path fill="#149EF2" d="M7.164 10.51c0-3.422 1.5-6.495 3.896-8.58.804-.708.255-2.03-.816-1.924-.71.067-1.42.2-2.13.388A11.122 11.122 0 00.403 8.25c-1.996 7.618 3.709 14.46 11.007 14.46.468 0 .937-.027 1.392-.08 1.058-.134 1.326-1.55.388-2.058a11.403 11.403 0 01-6.025-10.063z"/><path fill="#F20057" d="M10.503 24.85c-3.419 0-6.49-1.5-8.574-3.897-.708-.803-2.03-.255-1.923.817.067.696.2 1.406.4 2.115 1.056 3.776 4.074 6.722 7.854 7.713A11.41 11.41 0 0022.71 20.59c0-.468-.027-.937-.08-1.392-.134-1.058-1.55-1.326-2.057-.388-1.937 3.601-5.716 6.038-10.07 6.038z"/><path fill="#8252DD" d="M24.85 21.497c0 3.419-1.5 6.49-3.897 8.574-.803.708-.255 2.03.817 1.923.696-.067 1.406-.2 2.115-.4 3.776-1.056 6.722-4.074 7.713-7.854A11.41 11.41 0 0020.59 9.29c-.468 0-.937.027-1.392.08-1.058.134-1.326 1.55-.388 2.057 3.601 1.937 6.038 5.716 6.038 10.07z"/></g></g><defs><clipPath id="clip0_2813_8103"><path fill="#fff" d="M0 0h32v32H0z"/></clipPath><clipPath id="clip1_2813_8103"><path fill="#fff" d="M0 0h32v32H0z"/></clipPath></defs></svg>