<svg fill="none" viewBox="0 0 32 32" xmlns="http://www.w3.org/2000/svg"><g clip-path="url(#clip0_4223_6535)"><path fill="red" fill-rule="evenodd" d="M28.52 5.483a4.01 4.01 0 012.82 2.82c.686 2.504.66 7.723.66 7.723s0 5.193-.66 7.697a4.01 4.01 0 01-2.82 2.82c-2.504.66-12.52.66-12.52.66s-9.99 0-12.52-.686a4.01 4.01 0 01-2.821-2.82C0 21.219 0 16 0 16s0-5.193.659-7.697c.369-1.37 1.476-2.478 2.82-2.846 2.504-.66 12.52-.66 12.52-.66s10.017 0 12.521.686zM21.14 16l-8.33 4.798v-9.595L21.14 16z" clip-rule="evenodd"/></g><defs><clipPath id="clip0_4223_6535"><path fill="#fff" d="M0 0h32v32H0z"/></clipPath></defs></svg>