<svg fill="none" viewBox="0 0 130 40" xmlns="http://www.w3.org/2000/svg"><path fill="#A6A6A6" d="M118.811 0H10.286c-.396 0-.787 0-1.181.002-.33.002-.658.008-.992.013a15.35 15.35 0 00-2.161.177 7.591 7.591 0 00-2.05.627 6.948 6.948 0 00-1.747 1.178A6.302 6.302 0 00.21 5.522a12.07 12.07 0 00-.194 2.002c-.01.306-.01.614-.016.92V31.56c.005.31.006.61.016.921.009.672.074 1.34.194 2.003A6.257 6.257 0 002.155 38c.51.477 1.1.875 1.746 1.179a7.632 7.632 0 002.05.63 15.5 15.5 0 002.162.177c.334.007.662.011.992.011.394.002.785.002 1.18.002h108.526c.387 0 .782 0 1.169-.002.329 0 .666-.004.995-.01a15.446 15.446 0 002.158-.178 7.762 7.762 0 002.058-.63A6.79 6.79 0 00126.935 38a6.437 6.437 0 001.275-1.614c.326-.6.551-1.242.668-1.904.12-.662.187-1.331.2-2.002.005-.311.005-.612.005-.922.008-.364.008-.725.008-1.094V9.536c0-.366 0-.73-.008-1.092 0-.306 0-.614-.005-.92-.013-.671-.08-1.34-.2-2.002a6.29 6.29 0 00-.668-1.904c-.665-1.203-1.722-2.182-3.019-2.8a7.72 7.72 0 00-2.058-.627 15.133 15.133 0 00-2.158-.176c-.329-.005-.666-.011-.995-.013C119.593 0 119.198 0 118.811 0z"/><path fill="#000" d="M9.082 39.089c-.33 0-.65-.004-.976-.01a14.795 14.795 0 01-2.018-.163 6.72 6.72 0 01-1.788-.547 5.837 5.837 0 01-1.508-1.015 5.416 5.416 0 01-1.688-3.048 11.486 11.486 0 01-.18-1.872c-.006-.21-.015-.911-.015-.911V8.465s.01-.69.016-.893c.008-.626.068-1.251.179-1.869a5.448 5.448 0 011.682-3.054 6.01 6.01 0 011.513-1.021 6.648 6.648 0 011.785-.543C6.754.984 7.43.93 8.108.921L9.082.91h110.922l.985.013c.672.007 1.343.061 2.006.162a6.774 6.774 0 011.803.547c1.12.534 2.032 1.378 2.607 2.415.281.519.476 1.074.578 1.646.112.623.174 1.253.187 1.884.004.283.004.586.004.889.008.374.008.73.008 1.09v20.89c0 .362 0 .716-.008 1.073 0 .325 0 .622-.005.928-.013.62-.074 1.238-.184 1.85a5.452 5.452 0 01-.583 1.667 5.523 5.523 0 01-1.097 1.383c-.44.413-.95.758-1.51 1.02a6.686 6.686 0 01-1.8.55c-.668.1-1.341.155-2.018.162-.316.007-.647.01-.968.01l-1.17.003L9.082 39.09z"/><path fill="#fff" d="M68.005 13.54c-.862 0-1.589-.303-2.163-.898a3.06 3.06 0 01-.874-2.19c0-.869.294-1.604.874-2.187.572-.595 1.299-.898 2.16-.898.853 0 1.58.303 2.164.898a3.05 3.05 0 01.874 2.187c-.01.871-.304 1.607-.874 2.188-.572.6-1.299.9-2.161.9zm-25.65 0a3.002 3.002 0 01-2.173-.886c-.594-.585-.896-1.326-.896-2.2 0-.873.302-1.613.896-2.199.586-.588 1.318-.885 2.172-.885.419 0 .825.083 1.214.252.382.164.694.388.924.662l.057.069-.644.633-.066-.079c-.364-.433-.85-.645-1.494-.645a2.06 2.06 0 00-1.489.61c-.416.407-.627.94-.627 1.585s.211 1.178.627 1.585c.413.405.914.61 1.489.61.613 0 1.128-.205 1.53-.61.237-.238.384-.571.436-.992h-2.063v-.89h2.95l.011.08c.021.15.043.305.043.448 0 .821-.247 1.485-.736 1.976-.556.58-1.283.876-2.161.876zm34.104-.126h-.91l-2.785-4.469.024.805v3.661h-.91V7.496h1.038l.029.045 2.62 4.209-.025-.803V7.496h.92v5.918zm-15.289 0h-.921V8.386H58.65v-.89h4.115v.89h-1.598v5.028h.002zm-3.27 0h-.919V7.496h.92v5.918zm-5.165 0h-.92V8.386h-1.597v-.89h4.115v.89h-1.598v5.028zm-3.1-.01h-3.523V7.496h3.524v.89h-2.603v1.623h2.349v.881h-2.35v1.624h2.604v.89zm16.881-1.374c.41.412.91.62 1.489.62.596 0 1.083-.203 1.489-.62.404-.404.608-.935.608-1.575 0-.64-.204-1.174-.606-1.576a2.035 2.035 0 00-1.489-.62c-.596 0-1.083.203-1.486.62-.404.404-.608.935-.608 1.576 0 .64.202 1.173.603 1.575z"/><path fill="#fff" fill-rule="evenodd" d="M64.882 21.676c-2.245 0-4.064 1.707-4.064 4.06 0 2.334 1.831 4.062 4.064 4.062 2.244 0 4.063-1.719 4.063-4.061 0-2.354-1.82-4.061-4.063-4.061zm0 6.513c-1.228 0-2.285-1.02-2.285-2.462 0-1.464 1.06-2.461 2.285-2.461 1.227 0 2.284.997 2.284 2.461.002 1.452-1.057 2.462-2.284 2.462zm-8.866-6.513c-2.244 0-4.063 1.707-4.063 4.06 0 2.334 1.83 4.062 4.063 4.062 2.245 0 4.064-1.719 4.064-4.061 0-2.354-1.822-4.061-4.064-4.061zm0 6.513c-1.227 0-2.284-1.02-2.284-2.462 0-1.464 1.059-2.461 2.284-2.461 1.228 0 2.285.997 2.285 2.461 0 1.452-1.057 2.462-2.285 2.462zm-10.549-5.273v1.719h4.116c-.126.964-.444 1.675-.931 2.163-.603.605-1.534 1.262-3.175 1.262-2.53 0-4.508-2.047-4.508-4.582 0-2.535 1.979-4.583 4.508-4.583 1.365 0 2.36.54 3.099 1.231l1.216-1.219c-1.026-.985-2.392-1.74-4.306-1.74-3.47 0-6.38 2.833-6.38 6.301 0 3.478 2.908 6.301 6.38 6.301 1.874 0 3.28-.614 4.391-1.77 1.133-1.136 1.492-2.738 1.492-4.03 0-.403-.031-.765-.095-1.072h-5.81c.003-.002.003.019.003.019zm43.149 1.338c-.34-.912-1.366-2.588-3.47-2.588-2.085 0-3.819 1.645-3.819 4.061 0 2.28 1.715 4.061 4.02 4.061 1.853 0 2.931-1.135 3.376-1.802l-1.376-.923c-.456.678-1.09 1.123-1.99 1.123-.91 0-1.546-.414-1.968-1.23l5.417-2.25-.19-.452zm-5.524 1.357c-.043-1.57 1.216-2.367 2.116-2.367.71 0 1.301.35 1.503.86l-3.62 1.507zm-4.4 3.934h1.778v-11.93h-1.78v11.93zm-2.922-6.967h-.064c-.401-.479-1.164-.912-2.137-.912-2.021 0-3.883 1.783-3.883 4.073 0 2.28 1.852 4.042 3.883 4.042.962 0 1.736-.436 2.137-.923h.064v.583c0 1.55-.826 2.385-2.159 2.385-1.09 0-1.766-.786-2.042-1.443l-1.546.648c.444 1.071 1.63 2.397 3.586 2.397 2.085 0 3.852-1.23 3.852-4.232v-7.287H75.78v.669h-.01zm-2.042 5.61c-1.228 0-2.254-1.028-2.254-2.449 0-1.433 1.026-2.47 2.254-2.47 1.216 0 2.159 1.05 2.159 2.47.011 1.421-.94 2.45-2.16 2.45zm23.217-10.573H92.69v11.93h1.778v-4.518h2.477c1.97 0 3.905-1.43 3.905-3.701s-1.928-3.711-3.906-3.711zm.051 5.746h-2.529v-4.094h2.53c1.331 0 2.085 1.102 2.085 2.047 0 .935-.763 2.047-2.086 2.047zm10.984-1.707c-1.292 0-2.625.574-3.175 1.824l1.577.657c.339-.657.962-.881 1.619-.881.922 0 1.853.552 1.874 1.538v.126c-.318-.181-1.017-.457-1.852-.457-1.703 0-3.429.933-3.429 2.683 0 1.602 1.396 2.63 2.951 2.63 1.195 0 1.852-.54 2.263-1.166h.065v.923h1.714v-4.57c0-2.128-1.577-3.307-3.607-3.307zm-.224 6.535c-.581 0-1.396-.286-1.396-1.02 0-.923 1.016-1.273 1.884-1.273.783 0 1.153.17 1.62.402a2.144 2.144 0 01-2.108 1.89zm10.087-6.28l-2.043 5.175h-.064l-2.116-5.175h-1.914l3.175 7.234-1.809 4.02h1.852l4.885-11.254h-1.966zm-16.011 7.636h1.778v-11.93h-1.778v11.93z" clip-rule="evenodd"/><path fill="url(#paint0_linear_4223_6609)" fill-rule="evenodd" d="M9.938 8.1c-.276.298-.435.752-.435 1.348v21.107c0 .595.159 1.05.444 1.335l.074.064 11.798-11.826v-.264L10.01 8.036l-.073.064z" clip-rule="evenodd"/><path fill="url(#paint1_linear_4223_6609)" fill-rule="evenodd" d="M25.743 24.082l-3.935-3.944v-.276l3.935-3.944.085.052 4.655 2.652c1.332.752 1.332 1.994 0 2.756l-4.655 2.652-.085.052z" clip-rule="evenodd"/><path fill="url(#paint2_linear_4223_6609)" fill-rule="evenodd" d="M25.828 24.03L21.808 20 9.936 31.9c.435.466 1.164.519 1.978.064l13.914-7.934z" clip-rule="evenodd"/><path fill="url(#paint3_linear_4223_6609)" fill-rule="evenodd" d="M25.828 15.97L11.914 8.048c-.814-.467-1.546-.402-1.978.064L21.808 20l4.02-4.03z" clip-rule="evenodd"/><path fill="#000" fill-rule="evenodd" d="M25.744 23.944l-13.819 7.87c-.772.445-1.46.414-1.905.01l-.073.073.073.065c.444.402 1.133.435 1.905-.01l13.914-7.922-.095-.086z" clip-rule="evenodd" opacity=".2"/><path fill="#000" fill-rule="evenodd" d="M30.483 21.24l-4.752 2.704.086.086 4.655-2.652c.667-.38.995-.88.995-1.378-.04.457-.38.89-.983 1.24z" clip-rule="evenodd" opacity=".12"/><path fill="#fff" fill-rule="evenodd" d="M11.916 8.186L30.485 18.76c.603.34.942.785.995 1.24 0-.497-.328-.997-.995-1.378L11.915 8.048c-1.332-.764-2.412-.126-2.412 1.4v.138c0-1.529 1.08-2.155 2.413-1.4z" clip-rule="evenodd" opacity=".25"/><defs><linearGradient id="paint0_linear_4223_6609" x1="20.761" x2="1.856" y1="9.22" y2="14.245" gradientUnits="userSpaceOnUse"><stop stop-color="#00A0FF"/><stop offset=".007" stop-color="#00A1FF"/><stop offset=".26" stop-color="#00BEFF"/><stop offset=".512" stop-color="#00D2FF"/><stop offset=".76" stop-color="#00DFFF"/><stop offset="1" stop-color="#00E3FF"/></linearGradient><linearGradient id="paint1_linear_4223_6609" x1="32.22" x2="9.177" y1="20" y2="20" gradientUnits="userSpaceOnUse"><stop stop-color="#FFE000"/><stop offset=".409" stop-color="#FFBD00"/><stop offset=".775" stop-color="orange"/><stop offset="1" stop-color="#FF9C00"/></linearGradient><linearGradient id="paint2_linear_4223_6609" x1="23.642" x2="8.418" y1="22.193" y2="47.757" gradientUnits="userSpaceOnUse"><stop stop-color="#FF3A44"/><stop offset="1" stop-color="#C31162"/></linearGradient><linearGradient id="paint3_linear_4223_6609" x1="6.947" x2="13.739" y1="1.08" y2="12.497" gradientUnits="userSpaceOnUse"><stop stop-color="#32A071"/><stop offset=".069" stop-color="#2DA771"/><stop offset=".476" stop-color="#15CF74"/><stop offset=".801" stop-color="#06E775"/><stop offset="1" stop-color="#00F076"/></linearGradient></defs></svg>