<svg fill="none" class="sol-illustration" viewBox="0 0 169 32" xmlns="http://www.w3.org/2000/svg"><g clip-path="url(#clip0_2813_8156)"><g clip-path="url(#clip1_2813_8156)"><path fill="#FFA310" d="M21.49 7.16c3.422 0 6.495 1.5 8.58 3.899.708.804 2.03.254 1.924-.817-.067-.697-.2-1.407-.401-2.117-1.056-3.779-4.076-6.726-7.857-7.718a11.397 11.397 0 00-14.446 11c0 .47.027.938.08 1.393.134 1.059 1.55 1.327 2.058.39a11.402 11.402 0 0110.063-6.03z"/><path fill="#149EF2" d="M7.164 10.51c0-3.422 1.5-6.495 3.896-8.58.804-.708.255-2.03-.816-1.924-.71.067-1.42.2-2.13.388A11.122 11.122 0 00.403 8.25c-1.996 7.618 3.709 14.46 11.007 14.46.468 0 .937-.027 1.392-.08 1.058-.134 1.326-1.55.388-2.058a11.403 11.403 0 01-6.025-10.063z"/><path fill="#F20057" d="M10.503 24.85c-3.419 0-6.49-1.5-8.574-3.897-.708-.803-2.03-.255-1.923.817.067.696.2 1.406.4 2.115 1.056 3.776 4.074 6.722 7.854 7.713A11.41 11.41 0 0022.71 20.59c0-.468-.027-.937-.08-1.392-.134-1.058-1.55-1.326-2.057-.388-1.937 3.601-5.716 6.038-10.07 6.038z"/><path fill="#8252DD" d="M24.85 21.497c0 3.419-1.5 6.49-3.897 8.574-.803.708-.255 2.03.817 1.923.696-.067 1.406-.2 2.115-.4 3.776-1.056 6.722-4.074 7.713-7.854A11.41 11.41 0 0020.59 9.29c-.468 0-.937.027-1.392.08-1.058.134-1.326 1.55-.388 2.057 3.601 1.937 6.038 5.716 6.038 10.07z"/></g></g><path fill="#000A23" d="M50.143 23.742c-1.206 0-2.222-.133-3.075-.411-.853-.278-1.544-.61-2.086-1.02-.542-.412-.934-.823-1.205-1.234-.258-.41-.407-.755-.42-1.02-.014-.212.04-.385.19-.517a.713.713 0 01.5-.186h2.385a.84.84 0 01.203.027c.054.013.135.08.244.172.257.212.528.437.826.676.284.239.636.438 1.03.597.406.172.893.251 1.503.251.785 0 1.435-.145 1.964-.45.528-.305.799-.743.799-1.3 0-.41-.109-.742-.339-.994-.23-.252-.65-.49-1.273-.689-.623-.199-1.504-.424-2.641-.663-1.124-.252-2.046-.583-2.79-.968-.745-.397-1.287-.874-1.653-1.47-.366-.584-.542-1.273-.542-2.056 0-.768.23-1.484.705-2.187.474-.69 1.164-1.273 2.099-1.71.934-.45 2.086-.676 3.467-.676 1.084 0 2.019.133 2.818.398.799.265 1.463.596 1.99.98.529.398.935.783 1.22 1.194.284.397.433.742.447 1.047.013.212-.04.384-.176.517a.65.65 0 01-.474.185h-2.222a.617.617 0 01-.27-.053 2.3 2.3 0 01-.244-.145c-.217-.2-.46-.398-.718-.61a3.774 3.774 0 00-.948-.57c-.366-.172-.854-.252-1.45-.252-.758 0-1.34.16-1.733.49-.407.319-.596.73-.596 1.22 0 .332.094.623.284.862.19.238.569.477 1.151.689.583.212 1.463.438 2.642.676 1.34.239 2.397.583 3.196 1.047.786.464 1.355.995 1.68 1.578.325.596.487 1.26.487 1.975 0 .875-.27 1.67-.799 2.373-.528.703-1.314 1.26-2.343 1.657-1.043.371-2.316.57-3.833.57zm16.795-2.903c1.04 0 1.853-.332 2.413-.981.573-.65.88-1.617.946-2.89a24.718 24.718 0 000-2.28c-.053-1.246-.373-2.214-.946-2.877-.573-.662-1.373-.994-2.413-.994-1.04 0-1.853.332-2.413.994-.573.663-.88 1.618-.946 2.877a24.698 24.698 0 000 2.28c.053 1.273.373 2.24.946 2.89.56.663 1.373.98 2.413.98zm0 2.903c-1.573 0-2.892-.279-3.972-.822-1.066-.544-1.893-1.326-2.453-2.32-.56-.994-.88-2.16-.96-3.486a33.557 33.557 0 01-.026-1.286c0-.504.013-.941.026-1.286.08-1.352.414-2.519.987-3.5.586-.98 1.4-1.75 2.48-2.306 1.065-.544 2.372-.822 3.905-.822s2.839.278 3.905.822c1.067.543 1.893 1.312 2.48 2.306.573.995.906 2.161.986 3.5.013.358.027.782.027 1.286s-.014.941-.027 1.286c-.08 1.325-.4 2.492-.96 3.486-.56.994-1.373 1.776-2.452 2.32-1.053.557-2.373.822-3.946.822zm24.774-2.903c1.04 0 1.853-.332 2.413-.981.573-.65.88-1.617.946-2.89a24.718 24.718 0 000-2.28c-.053-1.246-.373-2.214-.946-2.877-.573-.662-1.373-.994-2.413-.994-1.04 0-1.853.332-2.412.994-.573.663-.88 1.618-.947 2.877a24.72 24.72 0 000 2.28c.054 1.273.374 2.24.947 2.89.56.663 1.36.98 2.412.98zm0 2.903c-1.573 0-2.892-.279-3.972-.822-1.066-.544-1.893-1.326-2.453-2.32-.56-.994-.88-2.16-.96-3.486a33.557 33.557 0 01-.026-1.286c0-.504.013-.941.027-1.286.08-1.352.413-2.519.986-3.5.587-.98 1.4-1.75 2.48-2.306 1.066-.544 2.372-.822 3.905-.822s2.84.278 3.906.822c1.066.543 1.892 1.312 2.479 2.306.573.995.906 2.161.986 3.5a32.095 32.095 0 010 2.572c-.08 1.325-.4 2.492-.96 3.486-.56.994-1.373 1.776-2.452 2.32-1.053.557-2.373.822-3.946.822zm21.809-9.089h6.62v-.094c0-.785-.136-1.462-.393-2.03a3.17 3.17 0 00-1.137-1.38c-.501-.339-1.097-.515-1.801-.515-.703 0-1.299.176-1.8.514-.501.339-.88.799-1.123 1.38-.244.583-.38 1.26-.38 2.03v.095h.014zm3.289 9.433c-2.22 0-3.979-.636-5.265-1.922-1.3-1.272-2.004-3.099-2.099-5.454-.013-.203-.027-.46-.027-.757 0-.312.014-.555.027-.731.082-1.502.42-2.801 1.029-3.898a6.327 6.327 0 012.532-2.53c1.083-.596 2.341-.88 3.803-.88 1.625 0 2.979.338 4.075 1.001 1.097.664 1.922 1.597 2.491 2.788.555 1.191.839 2.558.839 4.114v.623a.728.728 0 01-.203.514.746.746 0 01-.541.203h-9.95v.244c.014.703.149 1.34.406 1.935a3.232 3.232 0 001.11 1.42c.487.366 1.07.542 1.746.542.555 0 1.029-.081 1.408-.257s.691-.365.934-.582a3.57 3.57 0 00.515-.541c.176-.244.325-.38.433-.433.108-.054.271-.081.501-.081h2.572a.71.71 0 01.501.175.473.473 0 01.162.447c-.027.325-.19.704-.501 1.164-.311.46-.758.907-1.326 1.353-.583.433-1.3.799-2.166 1.096-.894.312-1.882.447-3.006.447zm17.859-3.154l-1.817.106c-1.176.066-2.179-.862-2.179-2.042a2.06 2.06 0 011.778-2.028l3.675-.49v2.916c0 .809-.641 1.485-1.457 1.538zm5.039-9.558a4.641 4.641 0 00-1.123-1.79c-.508-.503-1.203-.914-2.058-1.22-.855-.304-1.911-.45-3.154-.45-1.149 0-2.125.146-2.927.437-.815.292-1.47.65-1.978 1.074-.508.424-.882.862-1.123 1.3-.24.45-.36.834-.387 1.14 0 .198.053.357.16.463.107.12.267.173.495.173h2.338a.769.769 0 00.682-.385c.214-.464.548-.848.989-1.127.441-.278 1.016-.424 1.724-.424 1.003 0 1.711.226 2.125.676.414.451.615 1.087.615 1.91v.98l-5.172.398c-2.419.185-4.29 2.187-4.29 4.6 0 2.545 2.085 4.613 4.651 4.613h4.731c2.232 0 4.036-1.79 4.036-4.004v-6.203a6.125 6.125 0 00-.334-2.161zm-36.557-8.621h2.558a.62.62 0 01.614.627v19.734a.62.62 0 01-.614.628h-2.558a.62.62 0 01-.613-.628V3.38a.62.62 0 01.613-.627zm-25.118 0h2.558c.34 0 .613.28.613.627v19.734a.62.62 0 01-.613.628h-2.558a.62.62 0 01-.614-.628V3.38a.62.62 0 01.614-.627zm65.813 20.989a.698.698 0 01-.48-.188.795.795 0 01-.226-.563v-11c0-2.24 1.799-4.05 4.025-4.05 1.386 0 2.479 0 4.479-.027.426 0 .786.349.786.778v1.341c0 .43-.346.778-.773.778h-2.986c-.853 0-1.546.698-1.546 1.556v10.664a.67.67 0 01-.2.496.7.7 0 01-.52.201h-2.559v.014zm9.616-9.787v9.008c0 .43.353.779.788.779h2.511a.784.784 0 00.787-.779v-9.062c0-1.812 1.48-3.275 3.312-3.275 1.833 0 3.312 1.463 3.312 3.276v9.061c0 .43.353.779.788.779h2.511a.784.784 0 00.787-.779v-9.008c0-3.33-2.728-6.041-6.108-6.041h-2.593c-3.353 0-6.095 2.712-6.095 6.041z"/><defs><clipPath id="clip0_2813_8156"><path fill="#fff" d="M0 0h32v32H0z"/></clipPath><clipPath id="clip1_2813_8156"><path fill="#fff" d="M0 0h32v32H0z"/></clipPath></defs></svg>