<svg fill="none" viewBox="0 0 130 40" xmlns="http://www.w3.org/2000/svg"><g clip-path="url(#clip0_4223_6592)"><path fill="#A6A6A6" d="M118.811 0H10.286c-.396 0-.787 0-1.181.002-.33.002-.658.008-.992.013a15.35 15.35 0 00-2.161.177 7.591 7.591 0 00-2.05.627 6.948 6.948 0 00-1.747 1.178A6.302 6.302 0 00.21 5.522a12.07 12.07 0 00-.194 2.002c-.01.306-.01.614-.016.92V31.56c.005.31.006.61.016.921.009.672.074 1.34.194 2.003A6.257 6.257 0 002.155 38c.51.477 1.1.875 1.746 1.179a7.632 7.632 0 002.05.63 15.5 15.5 0 002.162.177c.334.007.662.011.992.011.394.002.785.002 1.18.002h108.526c.387 0 .782 0 1.169-.002.329 0 .666-.004.995-.01a15.446 15.446 0 002.158-.178 7.762 7.762 0 002.058-.63A6.79 6.79 0 00126.935 38a6.437 6.437 0 001.275-1.614c.326-.6.551-1.242.668-1.904.12-.662.187-1.331.2-2.002.005-.311.005-.612.005-.922.008-.364.008-.725.008-1.094V9.536c0-.366 0-.73-.008-1.092 0-.306 0-.614-.005-.92-.013-.671-.08-1.34-.2-2.002a6.29 6.29 0 00-.668-1.904c-.665-1.203-1.722-2.182-3.019-2.8a7.72 7.72 0 00-2.058-.627 15.133 15.133 0 00-2.158-.176c-.329-.005-.666-.011-.995-.013C119.593 0 119.198 0 118.811 0z"/><path fill="#000" d="M9.082 39.089c-.33 0-.65-.004-.976-.01a14.795 14.795 0 01-2.018-.163 6.72 6.72 0 01-1.788-.547 5.837 5.837 0 01-1.508-1.015 5.416 5.416 0 01-1.688-3.048 11.486 11.486 0 01-.18-1.872c-.006-.21-.015-.911-.015-.911V8.465s.01-.69.016-.893c.008-.626.068-1.251.179-1.869a5.448 5.448 0 011.682-3.054 6.01 6.01 0 011.513-1.021 6.648 6.648 0 011.785-.543C6.754.984 7.43.93 8.108.921L9.082.91h110.922l.985.013c.672.007 1.343.061 2.006.162a6.774 6.774 0 011.803.547c1.12.534 2.032 1.378 2.607 2.415.281.519.476 1.074.578 1.646.112.623.174 1.253.187 1.884.004.283.004.586.004.889.008.374.008.73.008 1.09v20.89c0 .362 0 .716-.008 1.073 0 .325 0 .622-.005.928-.013.62-.074 1.238-.184 1.85a5.452 5.452 0 01-.583 1.667 5.523 5.523 0 01-1.097 1.383c-.44.413-.95.758-1.51 1.02a6.686 6.686 0 01-1.8.55c-.668.1-1.341.155-2.018.162-.316.007-.647.01-.968.01l-1.17.003L9.082 39.09z"/><path fill="#fff" d="M24.084 20.3c.01-.834.226-1.652.627-2.378a4.89 4.89 0 011.664-1.773 4.973 4.973 0 00-1.692-1.55 4.82 4.82 0 00-2.189-.608c-1.633-.176-3.216 1.005-4.048 1.005-.848 0-2.13-.987-3.509-.958a5.065 5.065 0 00-2.524.774 5.253 5.253 0 00-1.825 1.954c-1.881 3.348-.478 8.27 1.323 10.976.902 1.325 1.955 2.805 3.333 2.753 1.35-.058 1.853-.885 3.481-.885 1.613 0 2.086.885 3.492.852 1.447-.024 2.36-1.332 3.229-2.67a11.095 11.095 0 001.476-3.092 4.682 4.682 0 01-2.063-1.76 4.879 4.879 0 01-.775-2.64zm-2.656-8.089a4.965 4.965 0 001.083-3.49 4.778 4.778 0 00-3.119 1.66c-.39.457-.69.99-.881 1.566a4.758 4.758 0 00-.23 1.794 3.886 3.886 0 001.744-.393 4.006 4.006 0 001.403-1.137zM41.134 27.14h-4.602l-1.106 3.356h-1.95l4.36-12.418h2.026l4.36 12.418h-1.983l-1.105-3.356zm-4.126-1.549h3.649l-1.799-5.447h-.05l-1.8 5.447zm16.63.379c0 2.813-1.465 4.62-3.674 4.62a2.917 2.917 0 01-1.607-.382 3.028 3.028 0 01-1.163-1.201h-.042v4.484h-1.808V21.442h1.75v1.506h.033a3.167 3.167 0 011.187-1.198 3.055 3.055 0 011.616-.402c2.235 0 3.708 1.816 3.708 4.622zm-1.858 0c0-1.833-.921-3.038-2.326-3.038-1.381 0-2.31 1.23-2.31 3.038 0 1.824.929 3.046 2.31 3.046 1.405 0 2.326-1.196 2.326-3.046zm11.549 0c0 2.813-1.465 4.62-3.675 4.62a2.917 2.917 0 01-1.606-.382 3.029 3.029 0 01-1.164-1.201h-.041v4.484h-1.808V21.442h1.75v1.506h.033a3.167 3.167 0 011.187-1.198 3.056 3.056 0 011.616-.402c2.235 0 3.708 1.816 3.708 4.622zm-1.858 0c0-1.833-.921-3.038-2.326-3.038-1.381 0-2.31 1.23-2.31 3.038 0 1.824.929 3.046 2.31 3.046 1.405 0 2.326-1.196 2.326-3.046zm8.259 1.066c.134 1.232 1.297 2.04 2.887 2.04 1.523 0 2.619-.808 2.619-1.919 0-.963-.661-1.54-2.226-1.936l-1.565-.388c-2.217-.55-3.247-1.617-3.247-3.348 0-2.142 1.816-3.614 4.394-3.614 2.552 0 4.3 1.472 4.36 3.614h-1.825c-.109-1.239-1.105-1.987-2.56-1.987-1.456 0-2.452.757-2.452 1.859 0 .878.636 1.394 2.192 1.79l1.33.336c2.478.602 3.508 1.626 3.508 3.442 0 2.323-1.8 3.778-4.662 3.778-2.678 0-4.486-1.42-4.603-3.667h1.85zM81.047 19.3v2.143h1.674v1.471h-1.674v4.992c0 .775.335 1.136 1.07 1.136.2-.003.398-.018.595-.043v1.463a4.83 4.83 0 01-1.003.086c-1.783 0-2.478-.688-2.478-2.444v-5.19h-1.28v-1.471h1.28V19.3h1.816zm2.643 6.67c0-2.849 1.631-4.639 4.175-4.639 2.553 0 4.177 1.79 4.177 4.639 0 2.857-1.616 4.639-4.177 4.639-2.56 0-4.175-1.783-4.175-4.639zm6.51 0c0-1.954-.87-3.107-2.335-3.107-1.464 0-2.334 1.162-2.334 3.107 0 1.962.87 3.107 2.334 3.107 1.465 0 2.335-1.145 2.335-3.107zm3.334-4.527h1.723v1.54h.042c.116-.48.391-.906.776-1.204a2.06 2.06 0 011.341-.431c.209-.001.417.022.62.07v1.737a2.46 2.46 0 00-.812-.112 1.774 1.774 0 00-.768.14 1.837 1.837 0 00-1.036 1.146c-.082.257-.11.529-.08.797v5.37h-1.806v-9.053zm12.831 6.394c-.243 1.644-1.8 2.772-3.79 2.772-2.562 0-4.151-1.765-4.151-4.596 0-2.84 1.598-4.682 4.074-4.682 2.436 0 3.967 1.721 3.967 4.466v.637h-6.218v.112a2.386 2.386 0 00.622 1.832 2.25 2.25 0 001.746.733c.428.04.857-.06 1.223-.29.367-.23.651-.575.811-.984h1.716zm-6.109-2.702h4.401a2.216 2.216 0 00-.591-1.634 2.115 2.115 0 00-.716-.5c-.27-.115-.56-.17-.852-.164a2.212 2.212 0 00-1.586.669 2.3 2.3 0 00-.487.747c-.112.28-.17.58-.169.882zM36.783 8.731c.38-.028.76.03 1.113.172.355.142.674.362.935.646.261.284.458.623.576.994.118.372.154.765.107 1.153 0 1.906-1.002 3.002-2.73 3.002h-2.097V8.73h2.096zm-1.194 5.123h1.094c.27.017.541-.029.793-.134a1.82 1.82 0 00.66-.47 1.904 1.904 0 00.46-1.542 1.934 1.934 0 00-.067-.82 1.894 1.894 0 00-.4-.71 1.829 1.829 0 00-.658-.469 1.79 1.79 0 00-.788-.135h-1.094v4.28zm4.943-1.41a2.19 2.19 0 01.097-.876 2.119 2.119 0 011.129-1.278 2.025 2.025 0 011.678 0c.264.12.501.296.696.517.194.22.342.479.433.76.091.283.124.582.097.877a2.19 2.19 0 01-.096.878 2.15 2.15 0 01-.433.763 2.08 2.08 0 01-.696.517 2.027 2.027 0 01-1.68 0 2.075 2.075 0 01-.697-.517 2.146 2.146 0 01-.433-.763 2.19 2.19 0 01-.095-.877zm3.24 0c0-.976-.425-1.546-1.174-1.546-.751 0-1.173.57-1.173 1.546 0 .984.422 1.55 1.173 1.55.748 0 1.175-.57 1.175-1.55zm6.378 2.254h-.896l-.905-3.317h-.069l-.901 3.317h-.888l-1.207-4.503h.877l.784 3.436h.065l.9-3.436h.829l.9 3.436h.069l.78-3.436h.864l-1.202 4.503zm2.219-4.503h.831v.715h.065c.11-.257.294-.472.529-.616.234-.144.506-.209.778-.186a1.39 1.39 0 01.626.097c.199.08.378.205.523.366.146.16.254.353.318.563.063.21.08.431.048.649v2.915h-.864v-2.692c0-.724-.306-1.084-.945-1.084a.978.978 0 00-.777.324 1.038 1.038 0 00-.268.817v2.635h-.864v-4.503zm5.096-1.758h.864v6.26h-.864v-6.26zm2.065 4.007a2.187 2.187 0 01.53-1.638 2.08 2.08 0 01.696-.515 2.026 2.026 0 011.679 0c.264.12.501.295.696.515a2.188 2.188 0 01.53 1.638 2.19 2.19 0 01-.096.878 2.15 2.15 0 01-.433.763 2.08 2.08 0 01-.696.517 2.027 2.027 0 01-1.68 0 2.077 2.077 0 01-.697-.517 2.15 2.15 0 01-.433-.763 2.192 2.192 0 01-.096-.877zm3.242 0c0-.976-.427-1.546-1.175-1.546-.751 0-1.174.57-1.174 1.546 0 .984.423 1.55 1.174 1.55.748 0 1.175-.57 1.175-1.55zm1.798.981c0-.811.587-1.278 1.629-1.345l1.186-.07v-.389c0-.475-.306-.744-.897-.744-.482 0-.816.182-.912.5h-.837c.089-.773.796-1.269 1.79-1.269 1.097 0 1.716.562 1.716 1.513v3.077h-.832v-.633h-.068a1.49 1.49 0 01-.565.536 1.44 1.44 0 01-.75.171 1.288 1.288 0 01-1.02-.34 1.39 1.39 0 01-.439-1.007zm2.815-.385v-.377l-1.07.07c-.602.042-.876.253-.876.65 0 .405.342.641.812.641a1.004 1.004 0 00.77-.245 1.058 1.058 0 00.364-.74zm1.997-.596c0-1.422.711-2.324 1.818-2.324.273-.013.545.055.783.195.237.14.432.346.56.595h.064V8.437h.864v6.26h-.828v-.71h-.068a1.54 1.54 0 01-.581.59 1.486 1.486 0 01-.794.195c-1.114 0-1.818-.901-1.818-2.328zm.893 0c0 .955.438 1.53 1.17 1.53.728 0 1.178-.583 1.178-1.526 0-.938-.455-1.53-1.178-1.53-.728 0-1.17.58-1.17 1.526zm6.769 0a2.192 2.192 0 01.097-.876c.091-.282.239-.541.433-.761a2.1 2.1 0 01.696-.517 2.025 2.025 0 011.679 0 2.14 2.14 0 011.129 1.277c.091.283.124.582.096.877a2.19 2.19 0 01-.095.878 2.147 2.147 0 01-.433.763 2.1 2.1 0 01-.696.517 2.026 2.026 0 01-1.68 0 2.075 2.075 0 01-.697-.517 2.147 2.147 0 01-.433-.763 2.19 2.19 0 01-.096-.877zm3.242 0c0-.976-.427-1.546-1.175-1.546-.751 0-1.174.57-1.174 1.546 0 .984.423 1.55 1.174 1.55.748 0 1.175-.57 1.175-1.55zm2.047-2.249h.832v.715h.064c.11-.257.295-.472.53-.616.233-.144.505-.209.777-.186a1.39 1.39 0 01.626.097 1.457 1.457 0 01.841.929c.063.21.08.431.049.649v2.915h-.864v-2.692c0-.724-.306-1.084-.945-1.084a.978.978 0 00-.778.324 1.038 1.038 0 00-.268.817v2.635h-.864v-4.503zm8.603-1.121v1.141h.948v.749h-.948v2.315c0 .472.188.678.618.678.11 0 .22-.007.33-.02v.74a2.755 2.755 0 01-.47.046c-.961 0-1.344-.348-1.344-1.216v-2.543h-.695v-.749h.695V9.074h.866zm2.129-.637h.856v2.482h.069a1.37 1.37 0 01.544-.62c.238-.145.514-.21.79-.187.212-.012.424.024.621.107.197.082.373.207.518.367a1.517 1.517 0 01.37 1.204v2.908h-.866V12.01c0-.72-.325-1.084-.936-1.084a.997.997 0 00-.81.307 1.066 1.066 0 00-.292.835v2.63h-.864v-6.26zm8.807 5.045a1.826 1.826 0 01-.718 1.006 1.743 1.743 0 01-1.18.297 1.94 1.94 0 01-.84-.167 1.99 1.99 0 01-.694-.514 2.06 2.06 0 01-.42-.766 2.103 2.103 0 01-.068-.877 2.11 2.11 0 01.487-1.65c.192-.223.427-.402.692-.523a1.98 1.98 0 01.84-.18c1.218 0 1.954.856 1.954 2.27v.31h-3.093v.05a1.222 1.222 0 00.306.91 1.15 1.15 0 00.86.38c.207.025.417-.013.602-.11s.339-.249.44-.436h.832zm-3.04-1.451h2.212a1.105 1.105 0 00-.288-.829 1.046 1.046 0 00-.79-.338 1.092 1.092 0 00-.806.338 1.16 1.16 0 00-.328.829z"/></g><defs><clipPath id="clip0_4223_6592"><path fill="#fff" d="M0 0h129.091v40H0z"/></clipPath></defs></svg>