<svg fill="none" viewBox="0 0 32 32" xmlns="http://www.w3.org/2000/svg"><path fill="url(#paint0_linear_4223_6534)" d="M21.6 2.1H10.4c-4.6 0-8.3 3.7-8.3 8.3v11.2c0 4.6 3.7 8.3 8.3 8.3h11.2c4.6 0 8.3-3.7 8.3-8.3V10.4c0-4.6-3.7-8.3-8.3-8.3zm5.5 19.5c0 3-2.4 5.5-5.5 5.5H10.4c-3 0-5.5-2.4-5.5-5.5V10.4c0-3 2.4-5.5 5.5-5.5h11.2c3 0 5.5 2.4 5.5 5.5v11.2z"/><path fill="url(#paint1_linear_4223_6534)" d="M16 8.8c-4 0-7.2 3.2-7.2 7.2s3.2 7.2 7.2 7.2 7.2-3.2 7.2-7.2S20 8.8 16 8.8zm0 11.6c-2.4 0-4.4-2-4.4-4.4 0-2.4 2-4.4 4.4-4.4 2.4 0 4.4 2 4.4 4.4 0 2.4-2 4.4-4.4 4.4z"/><path fill="url(#paint2_linear_4223_6534)" d="M23.2 10.6a1.7 1.7 0 100-3.4 1.7 1.7 0 000 3.4z"/><defs><linearGradient id="paint0_linear_4223_6534" x1="16" x2="16" y1="29.782" y2="2.352" gradientUnits="userSpaceOnUse"><stop stop-color="#E09B3D"/><stop offset=".3" stop-color="#C74C4D"/><stop offset=".6" stop-color="#C21975"/><stop offset="1" stop-color="#7024C4"/></linearGradient><linearGradient id="paint1_linear_4223_6534" x1="16" x2="16" y1="29.783" y2="2.352" gradientUnits="userSpaceOnUse"><stop stop-color="#E09B3D"/><stop offset=".3" stop-color="#C74C4D"/><stop offset=".6" stop-color="#C21975"/><stop offset="1" stop-color="#7024C4"/></linearGradient><linearGradient id="paint2_linear_4223_6534" x1="23.185" x2="23.185" y1="29.782" y2="2.352" gradientUnits="userSpaceOnUse"><stop stop-color="#E09B3D"/><stop offset=".3" stop-color="#C74C4D"/><stop offset=".6" stop-color="#C21975"/><stop offset="1" stop-color="#7024C4"/></linearGradient></defs></svg>