<svg width="32" height="32" fill="none" viewBox="0 0 32 32" xmlns="http://www.w3.org/2000/svg"><path fill="#1DA1F2" d="M30 7.577a11.87 11.87 0 01-3.298.866 5.573 5.573 0 002.525-3.04 11.896 11.896 0 01-3.65 1.335A5.849 5.849 0 0021.384 5c-3.172 0-5.744 2.463-5.744 5.499 0 .43.051.851.15 1.253-4.774-.23-9.006-2.42-11.84-5.747a5.283 5.283 0 00-.776 2.765c0 1.908 1.015 3.592 2.555 4.577a5.94 5.94 0 01-2.602-.69v.069c0 2.664 1.98 4.887 4.607 5.393a6.06 6.06 0 01-1.514.193c-.37 0-.73-.035-1.081-.102.731 2.186 2.852 3.776 5.364 3.82-1.964 1.474-4.442 2.35-7.133 2.35-.464 0-.92-.026-1.37-.075a16.762 16.762 0 008.804 2.475c10.567 0 16.342-8.38 16.342-15.65l-.019-.711A11.216 11.216 0 0030 7.577z"/></svg>